HIERARCHY
ROOT Hips
{
	OFFSET 0.000000 0.000000 0.000000
	CHANNELS 6 Xposition Yposition Zposition Zrotation Yrotation Xrotation 
	JOINT LHipJoint
	{
		OFFSET 0.000000 0.000000 0.000000
		CHANNELS 3 Zrotation Yrotation Xrotation
		JOINT LeftUpLeg
		{
			OFFSET 1.363060 -1.794630 0.839290
			CHANNELS 3 Zrotation Yrotation Xrotation
			JOINT LeftLeg
			{
				OFFSET 2.448110 -6.726130 0.000000
				CHANNELS 3 Zrotation Yrotation Xrotation
				JOINT LeftFoot
				{
					OFFSET 2.562200 -7.039590 0.000000
					CHANNELS 3 Zrotation Yrotation Xrotation
					JOINT LeftToeBase
					{
						OFFSET 0.157640 -0.433110 2.322550
						CHANNELS 3 Zrotation Yrotation Xrotation
						End Site
						{
							OFFSET 0.000000 0.000000 0.000000
						}
					}
				}
			}
		}
	}
	JOINT RHipJoint
	{
		OFFSET 0.000000 0.000000 0.000000
		CHANNELS 3 Zrotation Yrotation Xrotation
		JOINT RightUpLeg
		{
			OFFSET -1.305520 -1.794630 0.839290
			CHANNELS 3 Zrotation Yrotation Xrotation
			JOINT RightLeg
			{
				OFFSET -2.542530 -6.985550 0.000000
				CHANNELS 3 Zrotation Yrotation Xrotation
				JOINT RightFoot
				{
					OFFSET -2.568260 -7.056230 0.000000
					CHANNELS 3 Zrotation Yrotation Xrotation
					JOINT RightToeBase
					{
						OFFSET -0.164730 -0.452590 2.363150
						CHANNELS 3 Zrotation Yrotation Xrotation
						End Site
						{
							OFFSET 0.000000 0.000000 0.000000
						}
					}
				}
			}
		}
	}
	JOINT LowerBack
	{
		OFFSET 0.000000 0.000000 0.000000
		CHANNELS 3 Zrotation Yrotation Xrotation
		JOINT Spine
		{
			OFFSET 0.028270 2.035590 -0.193380
			CHANNELS 3 Zrotation Yrotation Xrotation
			JOINT Spine1
			{
				OFFSET 0.056720 2.048850 -0.042750
				CHANNELS 3 Zrotation Yrotation Xrotation
				JOINT Neck
				{
					OFFSET 0.000000 0.000000 0.000000
					CHANNELS 3 Zrotation Yrotation Xrotation
					JOINT Neck1
					{
						OFFSET -0.054170 1.746240 0.172020
						CHANNELS 3 Zrotation Yrotation Xrotation
						JOINT Head
						{
							OFFSET 0.104070 1.761360 -0.123970
							CHANNELS 3 Zrotation Yrotation Xrotation
							End Site
							{
								OFFSET 0.000000 0.000000 0.000000
							}
						}
					}
				}
				JOINT LeftShoulder
				{
					OFFSET 0.000000 0.000000 0.000000
					CHANNELS 3 Zrotation Yrotation Xrotation
					JOINT LeftArm
					{
						OFFSET 3.362410 1.200890 -0.311210
						CHANNELS 3 Zrotation Yrotation Xrotation
						JOINT LeftForeArm
						{
							OFFSET 4.983000 -0.000000 -0.000000
							CHANNELS 3 Zrotation Yrotation Xrotation
							JOINT LeftHand
							{
								OFFSET 3.483560 -0.000000 -0.000000
								CHANNELS 3 Zrotation Yrotation Xrotation
								JOINT LeftFingerBase
								{
									OFFSET 0.000000 0.000000 0.000000
									CHANNELS 3 Zrotation Yrotation Xrotation
									JOINT LeftHandIndex1
									{
										OFFSET 0.715260 -0.000000 -0.000000
										CHANNELS 3 Zrotation Yrotation Xrotation
										End Site
										{
											OFFSET 0.000000 0.000000 0.000000
										}
									}
								}
								JOINT LThumb
								{
									OFFSET 0.000000 0.000000 0.000000
									CHANNELS 3 Zrotation Yrotation Xrotation
									End Site
									{
										OFFSET 0.000000 0.000000 0.000000
									}
								}
							}
						}
					}
				}
				JOINT RightShoulder
				{
					OFFSET 0.000000 0.000000 0.000000
					CHANNELS 3 Zrotation Yrotation Xrotation
					JOINT RightArm
					{
						OFFSET -3.136600 1.374050 -0.404650
						CHANNELS 3 Zrotation Yrotation Xrotation
						JOINT RightForeArm
						{
							OFFSET -5.241900 -0.000000 -0.000000
							CHANNELS 3 Zrotation Yrotation Xrotation
							JOINT RightHand
							{
								OFFSET -3.444170 -0.000000 -0.000000
								CHANNELS 3 Zrotation Yrotation Xrotation
								JOINT RightFingerBase
								{
									OFFSET 0.000000 0.000000 0.000000
									CHANNELS 3 Zrotation Yrotation Xrotation
									JOINT RightHandIndex1
									{
										OFFSET -0.622530 -0.000000 -0.000000
										CHANNELS 3 Zrotation Yrotation Xrotation
										End Site
										{
											OFFSET 0.000000 0.000000 0.000000
										}
									}
								}
								JOINT RThumb
								{
									OFFSET 0.000000 0.000000 0.000000
									CHANNELS 3 Zrotation Yrotation Xrotation
									End Site
									{
										OFFSET 0.000000 0.000000 0.000000
									}
								}
							}
						}
					}
				}
			}
		}
	}
}
MOTION
Frames: 5
Frame Time: 0.008333
10.670606 17.976798 27.096169 -177.589041 -3.527541 179.547411 1.192046 4.210104 1.870594 -16.967407 -23.369159 -0.761663 -2.659566 6.994942 20.436828 -3.845747 13.462468 -4.097758 4.729900 -13.073000 -39.642200 -5.141883 -4.272002 0.635000 29.890176 13.754360 6.233232 3.557448 -3.565420 14.291850 6.392951 -26.538972 -16.159580 -0.013700 -0.755100 2.075300 5.722827 2.852366 6.284019 2.992103 4.430639 3.096090 -6.449581 1.487126 -12.969477 7.952331 17.301896 -8.251965 -0.525584 23.068379 4.571746 -2.777200 11.413900 3.269800 -2.064862 -9.760317 1.441003 -89.104714 7.272245 37.676040 23.826403 -23.247447 -6.198141 1.621466 0.672079 13.433701 3.624563 -36.976287 -1.376600 -7.125000 0.000000 0.000000 -16.769700 -6.700800 19.417100 0.045313 11.074529 2.873562 90.569061 -12.267990 41.065027 -22.537534 25.400476 -6.367374 0.833113 -0.405590 13.446295 -4.379930 -55.869848 4.376500 7.125000 0.000000 0.000000 78.449300 -73.815200 -61.494100 
10.674319 17.975986 27.101041 -177.749143 -3.709209 179.705262 1.160613 4.170989 1.829140 -17.044146 -23.429880 -0.846243 -2.672995 6.959230 20.325879 -3.724728 13.127869 -3.820832 4.753500 -13.100800 -39.746800 -5.131815 -4.256462 0.625320 29.707372 13.873084 5.997697 3.545005 -3.644038 14.466713 6.395173 -26.603295 -16.548531 -0.053200 -1.488800 4.094800 5.566579 2.843264 6.287515 2.835266 4.390813 2.849741 -6.347001 1.493695 -12.951011 8.045176 17.355621 -7.560778 -0.936657 23.075351 3.671653 -2.995400 11.369000 2.983500 -2.065225 -9.834853 1.463315 -89.145241 7.303644 37.759850 23.663806 -23.035991 -6.121908 1.586124 0.717698 14.053661 5.844174 -37.070828 -2.795500 -7.125000 0.000000 0.000000 -15.617500 -7.125500 18.079600 0.086325 11.015023 2.859189 90.620238 -12.416159 41.401551 -22.535068 25.296921 -6.261540 0.800836 -0.459900 12.533003 -14.585940 -53.194431 12.412300 7.125000 0.000000 0.000000 63.724800 -76.960100 -51.203400 
10.677567 17.978191 27.104753 -177.750865 -3.912083 179.833963 1.153286 4.144571 1.791532 -16.976692 -23.524297 -0.954891 -2.684743 6.938735 20.247091 -3.729703 13.135732 -3.732262 4.836600 -13.197400 -40.112100 -5.115400 -4.240980 0.618405 29.690187 13.925446 5.829131 3.544122 -3.681589 14.530252 6.410520 -26.689180 -16.729145 -0.062100 -1.608500 4.424800 5.502592 2.800329 6.276292 2.902595 4.322824 2.683186 -6.314172 1.466633 -12.921899 8.118218 17.359511 -7.173404 -1.318879 23.064062 3.175339 -3.155900 11.334700 2.843200 -2.083687 -9.869820 1.472223 -89.209154 7.272828 37.705989 23.513513 -22.854306 -6.060831 1.564309 0.750531 14.748407 7.516828 -37.310459 -3.890600 -7.125000 0.000000 0.000000 -14.761500 -7.634800 17.134200 0.090915 10.992765 2.860349 90.545877 -12.427655 41.580108 -22.533313 25.262347 -6.230467 0.787412 -0.480259 12.099971 -17.180461 -52.239431 14.336300 7.125000 0.000000 0.000000 58.123400 -77.629700 -46.855100 
10.680003 17.981439 27.109045 -177.730396 -4.062877 179.987992 1.145999 4.121049 1.752583 -16.887089 -23.600078 -1.074420 -2.700979 6.914951 20.148994 -3.783165 13.278720 -3.662241 4.910700 -13.282500 -40.435400 -5.097757 -4.216561 0.601536 29.663310 13.908070 5.571985 3.534249 -3.737959 14.632991 6.402693 -26.686341 -16.821837 -0.065800 -1.655200 4.553700 5.481424 2.758115 6.269716 2.952436 4.266251 2.478203 -6.292805 1.429648 -12.906724 8.084460 17.352648 -7.395493 -1.126401 23.078710 3.542956 -3.063700 11.361700 2.950600 -2.095099 -9.844184 1.481095 -89.227967 7.281057 37.721677 23.701683 -23.076986 -6.138780 1.579343 0.721125 14.048347 5.988119 -37.043599 -2.887900 -7.125000 0.000000 0.000000 -15.538500 -7.120500 17.980100 0.091958 11.017750 2.880767 90.494811 -12.421760 41.654033 -22.540647 25.270389 -6.232338 0.787203 -0.480133 11.967096 -17.290106 -52.175171 14.411700 7.125000 0.000000 0.000000 57.774000 -77.647200 -46.561900 
10.686151 17.988863 27.118558 -177.788356 -4.381382 -179.703408 1.116148 4.055454 1.664053 -16.789268 -23.730593 -1.368315 -2.710214 6.901086 20.057970 -3.697439 13.038732 -3.374857 4.954900 -13.332800 -40.627500 -5.082273 -4.177098 0.565304 29.542358 13.889151 5.184468 3.536603 -3.778545 14.670500 6.399679 -26.699937 -16.964275 -0.095800 -1.996300 5.495500 5.421126 2.692310 6.306378 2.805021 4.168073 1.981405 -6.211985 1.380542 -12.883560 8.220255 17.335584 -7.276825 -1.087122 23.053499 3.603909 -3.071700 11.357500 2.954400 -2.094134 -9.833492 1.512549 -89.147580 7.377785 37.805811 23.772791 -23.160174 -6.176757 1.579915 0.717982 13.800676 5.651375 -37.147863 -2.680300 -7.125000 0.000000 0.000000 -15.719800 -7.166800 18.216900 0.124067 11.017142 2.905583 90.600804 -12.493988 41.184674 -22.530341 25.282155 -6.252512 0.804837 -0.464754 13.052354 -13.755198 -53.074009 11.726600 7.125000 0.000000 0.000000 63.683700 -76.605100 -50.794500 
